<svg width="600" height="600" viewBox="0 0 600 600" fill="none" xmlns="http://www.w3.org/2000/svg">
<path d="M300.32 128.5C361.61 128.5 403.5 165.92 403.5 227.21C403.5 288.5 361.61 325.5 300.32 325.5C239.03 325.5 200 293.28 200 232C200 170.72 239.04 128.5 300.32 128.5ZM300.32 92.8999C226.15 92.8999 166.02 153.03 166.02 227.2C166.02 301.37 226.15 361.5 300.32 361.5C374.49 361.5 434.63 301.37 434.63 227.2C434.63 153.03 374.5 92.8999 300.32 92.8999Z" fill="black"/>
<path d="M494.78 487.2C500.71 497.36 491.47 475.96 494.78 487.2C488 451 467.28 429.1 447 415C427.65 401.54 401.88 392.04 376.5 385.03C351.82 378.22 328.2 373.19 300.35 373.19C272.5 373.19 239.72 378.19 215.05 385C189.68 392 177.86 401.54 158.5 415C138.22 429.1 126.99 453.12 115.5 472.79C110.76 480.91 118.57 478.4 115.5 487.2L72.27 472.79C75.83 462.58 80.42 452.63 85.92 443.23C99.12 420.63 117.51 401.04 140.58 385C162.1 370.05 187.15 358.56 215.05 350.87C241.73 343.51 270.43 339.78 300.35 339.78C330.27 339.78 358.99 343.51 385.67 350.88C413.58 358.58 438.64 370.07 460.15 385.03C483.21 401.06 501.6 420.66 514.81 443.27C521.68 455.04 527.12 467.62 530.95 480.65L508.74 487.2H494.78Z" fill="black"/>
<path d="M486.854 115.146C435.321 63.614 373.204 37.5 300.32 37.5C227.43 37.5 168.175 63.6184 116.646 115.146C65.1158 166.677 39 227.613 39 300.5C39 373.395 65.1221 430.329 116.646 481.854C168.183 533.38 227.427 560 300.32 560C373.207 560 435.323 533.384 486.854 481.854C538.378 430.329 564.5 373.395 564.5 300.5C564.5 227.613 538.384 166.677 486.854 115.146ZM5.32001 300.5C5.32001 137.576 137.396 5.5 300.32 5.5C463.244 5.5 595.32 137.576 595.32 300.5C595.32 463.424 463.244 595.5 300.32 595.5C137.396 595.5 5.32001 463.424 5.32001 300.5Z" fill="black" stroke="black"/>
</svg>
